<?xml version="1.0" standalone="no"?>
<!DOCTYPE svg PUBLIC "-//W3C//DTD SVG 20010904//EN"
 "http://www.w3.org/TR/2001/REC-SVG-20010904/DTD/svg10.dtd">
<svg version="1.0" xmlns="http://www.w3.org/2000/svg"
 width="800.000000pt" height="800.000000pt" viewBox="0 0 800.000000 800.000000"
 preserveAspectRatio="xMidYMid meet">

<g transform="translate(0.000000,800.000000) scale(0.100000,-0.100000)"
fill="#f3724f" stroke="none">
<path d="M3146 6699 c-202 -29 -392 -125 -569 -288 -121 -111 -227 -269 -227
-341 0 -28 -2 -31 -22 -24 -125 40 -157 20 -353 -216 -162 -195 -302 -445
-354 -631 -44 -157 -20 -328 59 -428 l40 -50 -35 -17 c-23 -11 -41 -30 -56
-61 -21 -43 -21 -50 -10 -147 20 -168 66 -360 105 -433 36 -70 145 -143 213
-143 17 0 34 -4 37 -8 3 -5 -24 -37 -60 -73 -36 -35 -72 -77 -81 -93 -37 -71
20 -160 144 -224 165 -84 352 -121 516 -103 52 6 107 15 121 21 38 14 31 -1
-14 -32 -22 -15 -40 -36 -40 -46 0 -16 74 -73 115 -89 9 -3 21 -17 26 -31 9
-23 4 -30 -51 -80 -33 -30 -60 -63 -60 -73 0 -22 27 -40 98 -65 72 -25 81 -45
46 -92 -15 -20 -28 -38 -29 -39 -1 -2 -30 9 -66 23 -35 14 -136 49 -224 79
-209 69 -268 93 -530 215 -224 104 -287 130 -385 155 -127 33 -824 101 -915
89 -27 -3 -72 -15 -98 -27 -38 -16 -47 -24 -45 -40 2 -17 17 -24 83 -39 148
-33 299 -56 400 -63 55 -3 129 -11 165 -17 36 -6 76 -12 90 -14 109 -14 277
-77 520 -194 247 -120 359 -162 555 -208 436 -104 419 -101 457 -81 31 16 126
2 138 -21 12 -22 -23 -108 -47 -117 -8 -3 -70 -1 -136 6 -116 10 -162 19 -497
90 -80 17 -194 36 -255 42 -60 6 -169 19 -242 30 -220 32 -315 24 -439 -36
-71 -33 -158 -63 -429 -145 -186 -56 -284 -106 -352 -180 -35 -37 -41 -61 -20
-78 14 -12 218 19 277 42 93 36 540 226 575 244 54 28 62 29 120 9 28 -9 112
-21 188 -27 169 -13 242 -36 305 -97 7 -7 27 -15 45 -18 36 -6 604 -24 793
-26 124 -1 175 10 216 48 17 15 20 15 35 0 14 -14 15 -23 4 -71 l-12 -55 -62
-5 c-34 -3 -152 -13 -262 -21 -444 -35 -561 -46 -644 -60 -487 -83 -515 -91
-626 -170 -57 -41 -184 -164 -277 -269 -24 -27 -77 -85 -118 -129 -41 -44 -92
-102 -112 -129 -61 -81 -91 -209 -72 -307 9 -43 21 -39 34 12 23 94 68 145
145 166 36 9 53 26 144 143 100 127 193 245 236 297 61 74 80 91 118 105 23 9
149 27 280 40 l238 25 52 -25 c59 -27 97 -29 262 -14 171 16 354 55 550 117
200 63 254 89 280 136 12 23 24 33 33 29 12 -4 13 -19 8 -78 -7 -80 2 -114 33
-114 9 0 46 14 81 31 87 42 105 34 115 -53 10 -81 20 -108 42 -108 10 0 48 21
86 47 82 57 90 54 124 -37 42 -112 57 -115 132 -30 29 33 61 60 71 60 12 0 32
-22 54 -57 53 -85 59 -93 75 -93 18 0 54 43 83 97 34 64 53 63 121 -7 81 -85
94 -81 132 34 29 86 48 91 126 32 91 -67 109 -62 123 39 16 113 21 116 118 75
38 -17 76 -30 84 -30 24 0 34 37 31 110 -4 87 9 103 42 50 28 -45 53 -57 225
-115 256 -85 465 -128 681 -141 114 -6 123 -5 180 19 l60 25 240 -25 c174 -18
252 -30 285 -45 43 -19 75 -53 256 -286 12 -15 41 -52 65 -82 24 -30 62 -79
84 -108 24 -31 50 -55 65 -58 84 -18 128 -61 155 -153 11 -33 22 -61 26 -61 5
0 11 17 14 38 3 20 8 44 9 53 7 36 -17 136 -45 189 -31 59 -43 74 -135 173
-55 59 -150 164 -234 260 -47 53 -193 173 -239 196 -59 30 -166 59 -321 85
-80 14 -183 32 -230 40 -47 8 -258 29 -470 46 -212 17 -412 33 -446 36 l-61 5
-13 55 c-12 49 -12 57 3 71 15 15 19 14 55 -11 21 -14 58 -30 81 -34 39 -6
783 11 894 21 33 3 56 12 75 29 63 59 119 76 294 88 75 5 156 16 180 25 61 21
68 20 163 -25 47 -22 87 -40 90 -40 3 0 68 -26 143 -59 298 -128 328 -138 422
-154 124 -21 143 -23 158 -14 39 25 -28 107 -135 164 -65 35 -216 92 -313 118
-127 34 -256 78 -340 116 -47 21 -105 42 -130 48 -64 15 -175 13 -283 -4 -50
-8 -159 -21 -242 -30 -82 -8 -202 -26 -265 -40 -398 -86 -606 -117 -660 -100
-27 9 -63 91 -50 115 13 25 97 36 144 19 41 -15 55 -13 343 55 283 67 421 115
648 226 201 99 347 158 440 180 28 7 57 14 65 17 8 3 24 6 35 8 11 1 54 7 95
13 41 7 131 16 200 22 121 9 177 18 345 56 117 25 128 37 65 73 -68 38 -140
43 -353 26 -292 -24 -613 -63 -696 -86 -69 -18 -235 -84 -291 -115 -114 -63
-427 -192 -600 -249 -63 -20 -155 -53 -203 -72 -49 -19 -90 -33 -91 -31 -65
89 -62 101 33 138 67 26 90 42 91 62 0 3 -27 32 -60 64 -37 35 -60 66 -60 78
1 15 21 34 70 64 83 52 88 70 30 110 -46 32 -52 46 -12 31 15 -6 69 -15 121
-20 167 -18 346 18 511 101 137 69 190 157 141 235 -23 37 -88 106 -120 128
-31 20 -25 27 34 38 91 17 172 76 208 152 18 38 63 187 71 237 3 19 10 58 15
85 5 28 12 84 16 126 9 95 -14 158 -64 180 -34 15 -39 30 -15 49 17 15 65 93
68 112 1 7 5 18 8 24 4 5 12 41 19 78 41 239 -170 664 -504 1015 -67 70 -118
94 -172 80 -69 -17 -69 -17 -75 26 -11 75 -69 163 -185 281 -229 232 -455 339
-715 337 -158 -1 -297 -36 -397 -99 -63 -40 -104 -105 -111 -177 -4 -46 -3
-50 14 -43 131 50 325 69 439 42 173 -41 309 -170 388 -367 22 -56 67 -228 67
-259 0 -29 -90 2 -201 70 -148 91 -200 109 -384 130 -183 21 -284 68 -400 183
l-80 80 -3 -37 c-4 -50 24 -143 56 -186 39 -52 48 -60 158 -148 114 -92 314
-295 401 -408 32 -42 104 -138 160 -213 56 -75 119 -156 140 -181 172 -202
429 -386 658 -471 33 -12 62 -23 64 -25 2 -2 -7 -19 -19 -38 -15 -26 -25 -65
-32 -136 -10 -92 -10 -105 11 -177 13 -42 34 -99 47 -125 27 -54 28 -53 -49
-63 -57 -8 -199 -78 -275 -135 -55 -42 -75 -50 -66 -26 8 21 -32 42 -109 56
-40 7 -71 19 -76 28 -6 10 3 41 27 95 35 77 35 80 17 93 -12 9 -47 14 -101 14
-99 0 -102 4 -78 107 17 69 17 75 1 90 -15 16 -22 16 -91 -1 -103 -24 -112
-18 -108 73 4 78 -2 106 -23 115 -8 3 -48 -10 -90 -29 -74 -34 -76 -34 -94
-16 -12 12 -21 41 -26 80 -4 34 -15 71 -25 83 l-17 22 -51 -33 c-28 -17 -56
-39 -62 -47 -7 -7 -25 -14 -40 -14 -25 0 -30 7 -55 75 -39 108 -51 111 -127
35 -41 -41 -68 -60 -82 -58 -12 2 -35 28 -60 70 -33 54 -46 67 -66 67 -20 0
-33 -13 -66 -67 -25 -41 -48 -68 -60 -70 -13 -2 -39 17 -78 58 -32 34 -65 60
-73 58 -17 -4 -33 -32 -63 -110 -27 -70 -46 -74 -111 -25 -70 54 -89 62 -106
44 -8 -8 -20 -45 -26 -83 -7 -38 -16 -75 -20 -81 -13 -20 -40 -16 -110 17 -36
17 -70 30 -76 30 -21 0 -32 -52 -25 -120 9 -90 -3 -100 -91 -77 -121 32 -133
23 -108 -88 22 -103 19 -107 -86 -109 -110 -1 -115 -8 -74 -109 38 -92 33
-103 -52 -117 -81 -14 -105 -26 -105 -50 0 -11 -2 -20 -5 -20 -2 0 -45 27 -94
60 -98 66 -185 106 -253 116 -72 10 -72 10 -50 46 11 18 32 71 47 117 25 75
27 92 22 178 -6 84 -19 131 -54 194 -2 3 16 11 39 18 69 21 256 118 343 179
189 131 300 241 462 459 100 135 162 216 216 283 99 121 282 302 392 385 128
98 174 168 183 282 5 64 4 66 -14 52 -11 -8 -42 -38 -69 -68 -101 -110 -219
-161 -428 -185 -143 -17 -231 -48 -357 -126 -108 -67 -200 -99 -200 -71 0 20
32 148 52 211 71 223 234 384 422 419 116 21 270 8 385 -33 24 -9 45 -16 47
-16 2 0 4 20 4 45 0 145 -153 244 -425 275 -101 11 -106 11 -189 -1z m1351
-2654 c87 -30 141 -64 202 -130 57 -62 83 -124 89 -212 4 -64 1 -78 -25 -135
-19 -40 -52 -85 -91 -124 -74 -74 -78 -97 -28 -158 45 -56 62 -91 84 -177 24
-90 49 -114 120 -114 102 0 142 40 151 154 5 67 8 76 27 79 12 2 35 -9 54 -24
32 -28 33 -29 27 -95 -11 -135 -122 -402 -193 -466 -25 -23 -30 -23 -266 -23
-221 0 -243 2 -272 19 -73 45 -106 112 -144 287 -32 146 -59 201 -113 232 -34
20 -52 22 -182 22 -130 0 -145 -2 -165 -20 -17 -17 -22 -32 -22 -75 0 -82 12
-89 163 -95 l122 -5 0 -180 0 -180 -467 -3 -467 -2 -35 42 c-50 60 -116 201
-116 246 1 69 37 92 143 92 59 0 80 4 98 19 l24 19 3 289 c2 158 0 303 -3 321
-8 41 -44 66 -95 64 -61 -3 -67 13 -46 121 19 94 52 175 89 215 l20 22 619 0
619 0 76 -25z"/>
<path d="M3788 3694 c-34 -18 -40 -40 -36 -124 l3 -65 200 0 c164 0 207 3 237
17 95 42 83 136 -22 173 -60 21 -343 21 -382 -1z"/>
</g>
</svg>
